<svg id="Capa_1" enable-background="new 0 0 512 512" height="512" viewBox="0 0 512 512" width="512" xmlns="http://www.w3.org/2000/svg"><g><path d="m432.4 330.65c-58.08 10.36-62.96 51.72-30.33 100.84 4.54 5.8 7.2 9.91 7.65 10.61 10.05 15.78-12.35 32.02-24.23 17.6-.52-.64-3.62-4.44-7.73-10.55-49.33-62.23-103.24-46.92-106.72 36.22.23 7.05-.02 11.72-.07 12.53-.56 9.35-7.77 14.01-14.97 14.01-7.21 0-14.41-4.67-14.97-14.01-.05-.83-.32-5.79-.05-13.24-3.38-81.4-56.7-98.49-107.12-34.95-3.92 5.78-6.84 9.37-7.35 9.99-11.9 14.45-34.27-1.85-24.23-17.6.45-.7 3.11-4.81 7.65-10.61 32.19-48.47 28.26-90.22-29.91-100.73-8.15-1.47-13.56-9.28-12.09-17.43.02-.1 1.31-107.41 0-114.66-1.47-8.15 3.94-15.96 12.09-17.43 58.19-10.52 62.09-52.28 29.91-100.73-4.54-5.8-7.2-9.91-7.65-10.61-10.05-15.78 12.35-32.02 24.23-17.6.52.64 3.62 4.44 7.73 10.55 49.34 62.23 103.24 46.92 106.72-36.22-.23-7.05.02-11.72.07-12.53.56-9.35 7.77-14.01 14.97-14.01 7.21 0 14.41 4.67 14.97 14.01.05.83.32 5.79.05 13.24 3.37 81.39 56.7 98.5 107.12 34.95 3.92-5.78 6.84-9.37 7.35-9.99 11.9-14.44 34.27 1.84 24.23 17.6-.45.7-3.11 4.81-7.65 10.61-32.18 48.45-28.19 90.06 29.49 100.62 8.15 1.49 13.55 9.3 12.06 17.45l.91 114.67c1.45 8.15-3.98 15.94-12.13 17.4z" fill="#fff587"/><path d="m432.4 330.65c-58.08 10.36-62.96 51.72-30.33 100.84 4.54 5.8 7.2 9.91 7.65 10.61 10.05 15.78-12.35 32.02-24.23 17.6-.52-.64-3.62-4.44-7.73-10.55-49.33-62.23-103.24-46.92-106.72 36.22.23 7.05-.02 11.72-.07 12.53-.56 9.35-7.77 14.01-14.97 14.01v-511.82c7.21 0 14.41 4.67 14.97 14.01.05.83.32 5.79.05 13.24 3.37 81.39 56.7 98.5 107.12 34.95 3.92-5.78 6.84-9.37 7.35-9.99 11.9-14.44 34.27 1.84 24.23 17.6-.45.7-3.11 4.81-7.65 10.61-32.18 48.45-28.19 90.06 29.49 100.62 8.15 1.49 13.55 9.3 12.06 17.45l.91 114.67c1.45 8.15-3.98 15.94-12.13 17.4z" fill="#ffd400"/><g><path d="m174.788 211.017c-.008 0-.014 0-.021 0l-23.778-.017c-8.284-.006-14.995-6.726-14.989-15.01.006-8.28 6.721-14.99 15-14.99h.011l23.777.017 25.602-25.62c5.855-5.861 15.354-5.863 21.213-.007 5.86 5.856 5.863 15.353.008 21.213l-25.602 25.62c-5.668 5.671-13.204 8.794-21.221 8.794z" fill="#97de3d"/></g><g><path d="m200.394 356.606-25.607-25.606h-23.787c-8.284 0-15-6.716-15-15s6.716-15 15-15h23.787c8.013 0 15.546 3.12 21.212 8.786l25.607 25.608c5.858 5.858 5.858 15.355 0 21.213-5.857 5.857-15.355 5.859-21.212-.001z" fill="#6aa9ff"/></g><g><g><g><path d="m290.394 356.607c-5.858-5.858-5.858-15.355 0-21.213l25.606-25.607c5.667-5.667 13.2-8.787 21.213-8.787h23.787c8.284 0 15 6.716 15 15s-6.716 15-15 15h-23.787l-25.606 25.606c-5.858 5.858-15.356 5.859-21.213.001z" fill="#2682ff"/></g></g></g><g><path d="m337.212 211.017c-8.017 0-15.552-3.122-21.22-8.793l-25.603-25.62c-5.855-5.86-5.853-15.357.008-21.213 5.858-5.856 15.356-5.852 21.213.007l25.602 25.62 23.777-.018h.011c8.279 0 14.994 6.709 15 14.99.006 8.284-6.705 15.005-14.989 15.01l-23.777.017c-.007 0-.015 0-.022 0z" fill="#5bc980"/></g><g><path d="m166.152 257.064c-1.008-8.223 4.841-15.706 13.063-16.714 19.271-2.363 37.447-11.226 51.178-24.957 5.857-5.858 15.355-5.858 21.213 0s5.858 15.355 0 21.213c-18.441 18.442-42.854 30.347-68.74 33.521-8.224 1.009-15.705-4.841-16.714-13.063z" fill="#ff6c6c"/></g><g><g><path d="m260.394 296.607c-5.858-5.858-5.858-15.355 0-21.213 18.447-18.448 42.867-30.353 68.761-33.523 8.238-1.007 15.706 4.844 16.712 13.066 1.007 8.223-4.843 15.705-13.065 16.712-19.278 2.36-37.459 11.224-51.194 24.959-5.858 5.856-15.357 5.857-21.214-.001z" fill="#e63950"/></g></g><g><path d="m151 331h-136c-8.284 0-15-6.716-15-15v-120c0-8.284 6.716-15 15-15h134.644c8.675-.772 13.136 4.634 16.888 11.595 8.239 15.282 35.491 71.394 42.973 86.876 3.3 6.823.99 15.036-5.381 19.14-18.096 11.656-38.421 24.999-42.701 28.178-2.7 2.607-6.374 4.211-10.423 4.211z" fill="#6e6e6e"/></g><g><path d="m360.948 330.943c-3.767 0-9.385-1.342-13.526-8.186-6.031-9.983-40.794-81.686-44.923-90.221-3.3-6.815-1.003-15.02 5.355-19.132 18.098-11.704 38.424-25.101 42.703-28.292 2.7-2.619 6.383-4.232 10.442-4.232h136c8.284 0 15 6.716 15 15v120c0 8.284-6.716 15-15 15h-134.644c-.43.039-.902.063-1.407.063z" fill="#444"/></g></g></svg>