<svg width="17" height="25" viewBox="0 0 17 25" fill="none" xmlns="http://www.w3.org/2000/svg">
<path d="M8.75833 0.0935233C10.4759 1.45453 14.7245 5.67629 13.7335 13.5471C13.7335 13.5471 14.8405 12.8866 15.8247 11.6643C16.0521 11.3823 16.5083 11.4907 16.5854 11.8446C16.7565 12.6316 16.9638 13.8921 16.9981 15.4864C17.1019 20.3034 13.304 24.4374 8.486 24.4459C3.81415 24.4541 0.000976562 20.6346 0.000976562 15.9447C0.000976562 11.8809 1.96816 9.75972 2.72567 6.26389C2.78803 5.97587 3.11878 5.83795 3.37211 5.98867C3.9469 6.33037 4.85576 6.9704 5.45037 7.87988C5.45037 7.87988 7.86826 4.81699 8.05759 0.422626C8.07287 0.0675089 8.47981 -0.127392 8.75833 0.0935233Z" fill="#FFAA5F"/>
<path d="M13.0912 15.9041C12.4127 16.9224 11.5528 17.1538 11.5528 17.1538C11.9009 12.9762 10.3031 9.91065 9.64509 8.8451C9.55198 8.69417 9.32074 8.73402 9.28316 8.90745C8.68153 11.6984 7.06616 13.2483 7.06616 13.2483C6.5405 12.6354 6.04086 12.3843 5.78092 12.2873C5.67872 12.2493 5.5695 12.3054 5.53151 12.4076C4.86794 14.1871 3.61388 15.5609 3.32855 17.6066C2.9086 20.6166 5.09567 23.4695 8.12758 23.6801C11.1857 23.8926 13.7324 21.4745 13.7324 18.4617C13.7324 17.2498 13.5714 16.4173 13.4481 15.9582C13.4038 15.7924 13.1861 15.7614 13.0912 15.9041Z" fill="#FFE17D"/>
<path d="M8.6269 15.4402C8.56393 15.2818 8.36263 15.2383 8.24783 15.3642C7.56217 16.1172 5.71948 18.321 5.71948 20.2615C5.71948 21.7976 6.96487 23.043 8.50116 23.043C10.0373 23.043 11.2826 21.7976 11.2826 20.2615C11.2826 18.801 9.48682 17.6035 8.6269 15.4402Z" fill="white"/>
<path d="M8.41256 24.442C7.50598 24.3741 -0.2907 22.9201 2.39766 13.1111C3.40086 9.45109 3.57657 6.11547 3.57657 6.11547C3.50492 6.07004 3.43534 6.02689 3.37113 5.9887C3.1178 5.83798 2.78705 5.9759 2.7247 6.26391C1.96718 9.75955 0 11.881 0 15.9448C0 20.61 3.75867 24.3943 8.41256 24.442Z" fill="#FF8C5A"/>
</svg>
