<svg width="24" height="24" viewBox="0 0 24 24" fill="none" xmlns="http://www.w3.org/2000/svg">
<g clip-path="url(#clip0)">
<path d="M7.04224 18.7452L0.206177 20.354C0.101074 20.3785 0 20.3011 0 20.196V15.9732C0 15.8679 0.101074 15.7905 0.206177 15.8152L7.04224 17.4239V18.7452Z" fill="#FF2C5C"/>
<path d="M4.71411 16.8759L5.05249 16.9792C5.539 17.1273 5.87134 17.5761 5.87134 18.0846C5.87134 18.5929 5.539 19.0417 5.05249 19.19L4.71411 19.2931L7.0423 18.7452V17.4238L4.71411 16.8759Z" fill="#E62753"/>
<path d="M16.9497 1.46283L23.3937 3.73096C23.5856 3.79834 23.7964 3.70221 23.8709 3.51306C23.9436 3.32849 23.8614 3.1192 23.6825 3.03351L18.2324 0.423157L16.9497 1.46283Z" fill="#685C79"/>
<path d="M8.80573 18.7846H6.88696V17.3842H8.80573C9.47534 17.3842 10.0203 16.8395 10.0203 16.1699V4.9812C10.0203 3.53925 11.1932 2.36627 12.635 2.36627H16.2737V3.76666H12.635C11.9654 3.76666 11.4207 4.3114 11.4207 4.98102V16.1697C11.4207 17.6116 10.2475 18.7846 8.80573 18.7846Z" fill="#594F69"/>
<path d="M8.18671 18.8571H6.97638C6.91046 18.8571 6.85718 18.8038 6.85718 18.7379V17.4311C6.85718 17.3652 6.91046 17.3119 6.97638 17.3119H8.18671C8.25262 17.3119 8.30591 17.3652 8.30591 17.4311V18.7379C8.30591 18.8038 8.25262 18.8571 8.18671 18.8571Z" fill="#D5DFE8"/>
<path d="M16.9497 1.09863H18.3984V6.3045H16.9497V1.09863Z" fill="#D5DFE8"/>
<path d="M17.9432 0H23.5646C23.805 0 24 0.195007 24 0.435425C24 0.661194 23.8273 0.849426 23.6025 0.869019L16.9497 1.44873V0.99353C16.9497 0.444763 17.3947 0 17.9432 0Z" fill="#FF2C5C"/>
<path d="M17.9432 0H23.5646C23.805 0 24 0.195007 24 0.435425C24 0.661194 23.8273 0.849426 23.6025 0.869019L16.9497 1.44873V0.99353C16.9497 0.444763 17.3947 0 17.9432 0Z" fill="#FF2C5C"/>
<path d="M23.5645 0H22.116C22.3564 0 22.5512 0.225586 22.5512 0.503723C22.5512 0.732422 22.4188 0.927979 22.2348 0.98822L23.6024 0.869202C23.8273 0.849609 23.9999 0.661194 23.9999 0.435425C23.9999 0.195007 23.8049 0 23.5645 0Z" fill="#E62753"/>
<path d="M16.9497 3.9115H15.7908C15.6841 3.9115 15.5977 3.82507 15.5977 3.71832V2.41443C15.5977 2.30786 15.6841 2.22125 15.7908 2.22125H16.9497V3.9115Z" fill="#CAD2DB"/>
<path d="M22.015 22.7545H13.323V8.93353C13.323 6.53339 15.2687 4.58752 17.669 4.58752C20.0693 4.58752 22.015 6.53339 22.015 8.93353V22.7545Z" fill="#FF2C5C"/>
<path d="M17.6689 4.58752C17.4221 4.58752 17.1802 4.6084 16.9446 4.64795C19.0001 4.99292 20.5664 6.78021 20.5664 8.93353V22.7545H22.015V8.93353C22.015 6.53339 20.0693 4.58752 17.6689 4.58752Z" fill="#E62753"/>
<path d="M22.2563 24H13.0813V22.2616C13.0813 22.1548 13.1677 22.0684 13.2745 22.0684H22.0632C22.1699 22.0684 22.2563 22.1548 22.2563 22.2616V24Z" fill="#685C79"/>
<path d="M22.0632 22.0684H20.6145C20.7213 22.0684 20.8077 22.1548 20.8077 22.2616V24H22.2564V22.2616C22.2564 22.1548 22.17 22.0684 22.0632 22.0684Z" fill="#594F69"/>
</g>
<defs>
<clipPath id="clip0">
<rect width="24" height="24" fill="white"/>
</clipPath>
</defs>
</svg>
