<svg width="17" height="23" viewBox="0 0 17 23" fill="none" xmlns="http://www.w3.org/2000/svg">
<path d="M7.84863 8.70353V15.041H9.15131V7.04596L7.84863 8.70353Z" fill="#EFC277"/>
<path d="M8.5 15.041H9.15134V7.04596L8.5 7.79669V15.041Z" fill="#E9A43A"/>
<path d="M13.7324 17.0058C13.3821 17.0058 13.0372 17.0616 12.709 17.17C12.4147 16.4828 11.9525 15.8696 11.3644 15.397C10.5561 14.7473 9.53884 14.3896 8.5 14.3896C7.46115 14.3896 6.44389 14.7473 5.63558 15.397C5.04746 15.8696 4.58527 16.4828 4.29099 17.17C3.96285 17.0616 3.61785 17.0058 3.26756 17.0058C1.46582 17.0058 0 18.4716 0 20.2734V21.5815C0 21.9412 0.291627 22.2328 0.651341 22.2328H16.3487C16.7084 22.2328 17 21.9412 17 21.5815V20.2734C17 18.4716 15.5342 17.0058 13.7324 17.0058Z" fill="#8F5041"/>
<path d="M16.3487 22.2328C16.7084 22.2328 17 21.9412 17 21.5815V20.2734C17 18.4716 15.5342 17.0058 13.7324 17.0058C13.3821 17.0058 13.0372 17.0616 12.709 17.17C12.4147 16.4828 11.9525 15.8696 11.3644 15.397C10.5561 14.7473 9.53885 14.3896 8.5 14.3896V22.2328H16.3487Z" fill="#773941"/>
<path d="M13.9951 3.23074C13.9769 2.89925 13.7122 2.63455 13.3807 2.61626C13.2677 2.60997 10.5939 2.48231 8.9631 4.11309C8.78958 4.28661 8.63617 4.47202 8.50017 4.66478C8.26126 3.70474 7.81222 2.63216 6.97295 1.79288C5.025 -0.155061 1.81954 -0.00190857 1.68406 0.00564699C1.35257 0.023928 1.08786 0.288633 1.06958 0.620122C1.06211 0.755644 0.908875 3.96107 2.85686 5.90901C4.29676 7.34891 6.39473 7.63923 7.46098 7.69051H7.84874V8.70352C7.84874 8.95003 8.04857 9.14987 8.29508 9.14987C8.97834 9.14987 11.114 9.03262 12.4983 7.64835C14.1291 6.01752 14.0013 3.34377 13.9951 3.23074Z" fill="#8CC152"/>
<path d="M13.3805 2.61625C13.2676 2.60996 10.5938 2.4823 8.96297 4.11308C8.78946 4.2866 8.63604 4.47201 8.50004 4.66477C8.50004 4.66468 8.5 4.66463 8.5 4.66455V9.14643C9.3365 9.12059 11.2315 8.91494 12.4982 7.6483C14.129 6.01747 14.0013 3.34372 13.995 3.23069C13.9767 2.89924 13.712 2.63454 13.3805 2.61625Z" fill="#8CC152"/>
</svg>
